#N canvas 1907 -13 1920 1996 12;
#X obj 134 112 vsl 15 128 0 127 0 0 empty empty empty 0 -9 0 10 -262144
-1 -1 0 1;
#X floatatom 134 254 5 0 0 0 - - -;
#X obj 134 283 ctlout 101;
#X obj 214 112 vsl 15 128 0 127 0 0 empty empty empty 0 -9 0 10 -262144
-1 -1 0 1;
#X floatatom 214 254 5 0 0 0 - - -;
#X text 134 82 Rate;
#X text 214 82 Delay Time;
#X obj 313 112 vsl 15 128 0 127 0 0 empty empty empty 0 -9 0 10 -262144
-1 -1 0 1;
#X text 181 45 LFO;
#X text 448 45 DCO;
#X obj 351 112 vsl 15 128 0 127 0 0 empty empty empty 0 -9 0 10 -262144
-1 -1 0 1;
#X text 313 82 LFO;
#X text 351 82 PWM;
#X obj 401 156 vradio 15 1 0 2 empty empty empty 0 -8 0 10 -262144
-1 -1 0;
#X text 401 128 LFO;
#X text 408 194 MAN;
#X obj 466 137 tgl 15 0 empty empty empty 17 7 0 10 -262144 -1 -1 0
1;
#X obj 518 137 tgl 15 0 empty empty empty 17 7 0 10 -262144 -1 -1 0
1;
#X text 466 109 pulse;
#X obj 590 112 vsl 15 128 0 127 0 0 empty empty empty 0 -9 0 10 -262144
-1 -1 0 1;
#X text 590 82 SUB;
#X obj 636 112 vsl 15 128 0 127 0 0 empty empty empty 0 -9 0 10 -262144
-1 -1 0 1;
#X text 636 82 NOISE;
#X text 782 45 HPF;
#X text 728 74 FREQ;
#X obj 728 104 vsl 15 128 0 127 0 0 empty empty empty 0 -9 0 10 -262144
-1 -1 0 1;
#X text 984 45 VCF;
#X obj 886 112 vsl 15 128 0 127 0 0 empty empty empty 0 -9 0 10 -262144
-1 -1 0 1;
#X obj 917 112 vsl 15 128 0 127 0 0 empty empty empty 0 -9 0 10 -262144
-1 -1 0 1;
#X obj 984 102 vsl 15 128 0 127 0 0 empty empty empty 0 -9 0 10 -262144
-1 -1 0 1;
#X obj 1030 112 vsl 15 128 0 127 0 0 empty empty empty 0 -9 0 10 -262144
-1 -1 0 1;
#X obj 1070 112 vsl 15 128 0 127 0 0 empty empty empty 0 -9 0 10 -262144
-1 -1 0 1;
#X obj 952 156 vradio 15 1 0 2 empty empty empty 0 -8 0 10 -262144
-1 -1 4;
#X text 867 82 FREQ;
#X text 917 82 RES;
#X text 984 72 ENV;
#X text 1030 82 LFO;
#X text 1070 82 KYBD;
#X text 1193 45 VCA;
#X obj 1171 156 vradio 15 1 0 2 empty empty empty 0 -8 0 10 -262144
-1 -1 1;
#X text 952 128 reg;
#X text 1131 155 ENV;
#X text 1124 178 GATE;
#X obj 1232 112 vsl 15 128 0 127 0 0 empty empty empty 0 -9 0 10 -262144
-1 -1 0 1;
#X text 1232 82 LEVEL;
#X text 1428 45 ENV;
#X obj 1368 112 vsl 15 128 0 127 0 0 empty empty empty 0 -9 0 10 -262144
-1 -1 0 1;
#X obj 1404 112 vsl 15 128 0 127 0 0 empty empty empty 0 -9 0 10 -262144
-1 -1 0 1;
#X obj 1428 102 vsl 15 128 0 127 0 0 empty empty empty 0 -9 0 10 -262144
-1 -1 0 1;
#X obj 1477 112 vsl 15 128 0 127 0 0 empty empty empty 0 -9 0 10 -262144
-1 -1 0 1;
#X text 1368 82 A;
#X text 1404 82 D;
#X text 1428 72 S;
#X text 1477 82 R;
#X obj 1568 156 vradio 15 1 0 4 empty empty empty 0 -8 0 10 -262144
-1 -1 1;
#X text 1523 182 I;
#X text 1521 155 OFF;
#X text 1523 209 II;
#X obj 1609 112 vsl 15 128 0 127 0 0 empty empty empty 0 -9 0 10 -262144
-1 -1 0 1;
#X obj 1666 112 vsl 15 128 0 127 0 0 empty empty empty 0 -9 0 10 -262144
-1 -1 0 1;
#X obj 1703 112 vsl 15 128 0 127 0 0 empty empty empty 0 -9 0 10 -262144
-1 -1 0 1;
#X obj 343 390 vradio 15 1 0 3 empty empty empty 0 -8 0 10 -262144
-1 -1 0;
#X text 300 408 POLY;
#X text 301 389 MONO;
#X text 298 426 PORT;
#X floatatom 343 446 5 0 0 0 - - -;
#X obj 343 475 ctlout 18;
#X floatatom 351 254 5 0 0 0 - - -;
#X obj 351 283 ctlout 24;
#X text 491 82 !CUSTOM!;
#X obj 477 228 +;
#X floatatom 503 262 5 0 0 0 - - -;
#X obj 511 196 * 2;
#X obj 562 196 tgl 15 0 empty empty empty 17 7 0 10 -262144 -1 -1 0
1;
#X floatatom 590 254 5 0 0 0 - - -;
#X floatatom 1153 233 5 0 0 0 - - -;
#X obj 1153 262 ctlout 19;
#X floatatom 1370 297 5 0 0 0 - - -;
#X obj 1370 326 ctlout 12;
#X floatatom 1404 254 5 0 0 0 - - -;
#X obj 1404 283 ctlout 22;
#X floatatom 1446 297 5 0 0 0 - - -;
#X obj 1446 326 ctlout 23;
#X floatatom 1477 254 5 0 0 0 - - -;
#X obj 1477 283 ctlout 13;
#X text 1539 126 MAN;
#X floatatom 1566 262 5 0 0 0 - - -;
#X obj 1563 314 ctlout 25;
#X text 1647 72 depth;
#X floatatom 1609 254 5 0 0 0 - - -;
#X obj 1609 283 ctlout 26;
#X floatatom 1661 256 5 0 0 0 - - -;
#X floatatom 1703 254 5 0 0 0 - - -;
#X obj 1703 283 ctlout 28;
#X obj 1666 316 ctlout 27;
#X floatatom 1232 254 5 0 0 0 - - -;
#X obj 1232 283 ctlout 7;
#X floatatom 886 254 5 0 0 0 - - -;
#X obj 886 283 ctlout 14;
#X floatatom 921 297 5 0 0 0 - - -;
#X obj 921 326 ctlout 15;
#X obj 822 444 midiin;
#X obj 822 474 midiout;
#X obj 119 530 vsl 15 128 0 127 0 0 empty empty empty 0 -9 0 10 -262144
-1 -1 0 1;
#X floatatom 119 672 5 0 0 0 - - -;
#X obj 119 701 ctlout 5;
#X text 119 500 portamento time;
#X obj 310 530 vsl 15 128 0 127 0 0 empty empty empty 0 -9 0 10 -262144
-1 -1 0 1;
#X floatatom 310 672 5 0 0 0 - - -;
#X obj 310 701 ctlout 65;
#X obj 600 544 vsl 15 128 0 127 0 0 empty empty empty 0 -9 0 10 -262144
-1 -1 0 1;
#X floatatom 600 686 5 0 0 0 - - -;
#X obj 600 715 ctlout 64;
#X text 579 500 sustain pedal (>63=true);
#X text 1609 82 offset;
#X obj 1810 112 vsl 15 128 0 127 0 0 empty empty empty 0 -9 0 10 -262144
-1 -1 0 1;
#X floatatom 1810 254 5 0 0 0 - - -;
#X obj 1810 283 ctlout 29;
#X text 993 500 modes;
#X text 871 551 mono;
#X text 940 559 poly;
#X obj 1068 596 vradio 15 1 0 2 empty empty empty 0 -8 0 10 -262144
-1 -1 1;
#X text 1065 563 velocity;
#X text 1090 594 off;
#X text 1092 612 on;
#X floatatom 1068 633 5 0 0 0 - - -;
#X obj 1068 656 ctlout 9;
#X obj 1195 584 vsl 15 128 0 127 0 0 empty empty empty 0 -9 0 10 -262144
-1 -1 0 1;
#X text 1194 556 pan;
#X floatatom 1195 720 5 0 0 0 - - -;
#X obj 1195 743 ctlout 10;
#X text 1647 45 FLANGER;
#X obj 1302 583 vsl 15 128 0 127 0 0 empty empty empty 0 -9 0 10 -262144
-1 -1 0 1;
#X text 1296 545 pitch range;
#X floatatom 1302 719 5 0 0 0 - - -;
#X obj 1302 742 ctlout 30;
#X text 311 358 custom poly;
#X text 310 500 portamento on off (>63 = true);
#X floatatom 728 240 5 0 0 0 - - -;
#X obj 725 284 ctlout 75;
#X text 779 73 RES;
#X obj 783 101 vsl 15 128 0 127 0 0 empty empty empty 0 -9 0 10 -262144
-1 -1 0 1;
#X floatatom 783 237 5 0 0 0 - - -;
#X obj 783 260 ctlout 76;
#X obj 1439 577 vsl 15 128 0 127 0 0 empty empty empty 0 -9 0 10 -262144
-1 -1 0 1;
#X floatatom 1439 713 5 0 0 0 - - -;
#X obj 1439 736 ctlout 84;
#X text 1438 546 portamento start note;
#X obj 874 589 tgl 15 0 empty empty empty 17 7 0 10 -262144 -1 -1 0
1;
#X floatatom 874 609 5 0 0 0 - - -;
#X obj 871 632 ctlout 126;
#X obj 947 585 tgl 15 0 empty empty empty 17 7 0 10 -262144 -1 -1 0
1;
#X floatatom 947 605 5 0 0 0 - - -;
#X obj 947 628 ctlout 127;
#X text 908 660 omni;
#X text 873 684 on;
#X obj 875 709 tgl 15 0 empty empty empty 17 7 0 10 -262144 -1 -1 0
1;
#X floatatom 875 729 5 0 0 0 - - -;
#X obj 866 754 ctlout 124;
#X obj 943 710 tgl 15 0 empty empty empty 17 7 0 10 -262144 -1 -1 0
1;
#X floatatom 943 730 5 0 0 0 - - -;
#X obj 943 753 ctlout 125;
#X text 940 686 off;
#X obj 776 649 tgl 15 0 empty empty empty 17 7 0 10 -262144 -1 -1 0
1;
#X obj 1055 715 tgl 15 0 empty empty empty 17 7 0 10 -262144 -1 -1
0 1;
#X floatatom 1055 735 5 0 0 0 - - -;
#X obj 1055 758 ctlout 121;
#X floatatom 776 669 5 0 0 0 - - -;
#X obj 776 692 ctlout 123;
#X text 1041 686 reset params;
#X text 767 620 all notes off;
#X obj 1635 379 vradio 15 1 0 8 empty empty empty 0 -8 0 10 -262144
-1 -1 0;
#X text 1632 347 flanger presets;
#X floatatom 1635 504 5 0 0 0 - - -;
#X text 1703 82 coarse rate;
#X text 1810 82 fine rate;
#X obj 1635 527 ctlout 77;
#X obj 503 285 ctlout 85;
#X text 521 109 saw;
#X obj 590 283 ctlout 86;
#X floatatom 636 248 5 0 0 0 - - -;
#X obj 636 315 ctlout 87;
#X floatatom 984 238 5 0 0 0 - - -;
#X obj 990 312 ctlout 88;
#X floatatom 1030 248 5 0 0 0 - - -;
#X obj 1030 293 ctlout 89;
#X floatatom 1070 248 5 0 0 0 - - -;
#X obj 1070 271 ctlout 90;
#X floatatom 313 248 5 0 0 0 - - -;
#X obj 312 305 ctlout 102;
#X obj 214 283;
#X floatatom 401 221 5 0 0 0 - - -;
#X obj 401 251 ctlout 31;
#X floatatom 957 257 5 0 0 0 - - -;
#X obj 957 280 ctlout 103;
#X text 957 262;
#X text 946 186 inv;
#X connect 0 0 1 0;
#X connect 1 0 2 0;
#X connect 3 0 4 0;
#X connect 4 0 190 0;
#X connect 7 0 188 0;
#X connect 10 0 67 0;
#X connect 13 0 191 0;
#X connect 16 0 70 0;
#X connect 17 0 72 0;
#X connect 17 0 73 0;
#X connect 19 0 74 0;
#X connect 21 0 180 0;
#X connect 25 0 138 0;
#X connect 27 0 97 0;
#X connect 28 0 99 0;
#X connect 29 0 182 0;
#X connect 30 0 184 0;
#X connect 31 0 186 0;
#X connect 32 0 193 0;
#X connect 39 0 75 0;
#X connect 43 0 95 0;
#X connect 46 0 77 0;
#X connect 47 0 79 0;
#X connect 48 0 81 0;
#X connect 49 0 83 0;
#X connect 54 0 86 0;
#X connect 58 0 89 0;
#X connect 59 0 91 0;
#X connect 60 0 92 0;
#X connect 61 0 65 0;
#X connect 65 0 66 0;
#X connect 67 0 68 0;
#X connect 70 0 71 0;
#X connect 71 0 177 0;
#X connect 72 0 70 1;
#X connect 73 0 16 0;
#X connect 74 0 179 0;
#X connect 75 0 76 0;
#X connect 77 0 78 0;
#X connect 79 0 80 0;
#X connect 81 0 82 0;
#X connect 83 0 84 0;
#X connect 86 0 87 0;
#X connect 89 0 90 0;
#X connect 91 0 94 0;
#X connect 92 0 93 0;
#X connect 95 0 96 0;
#X connect 97 0 98 0;
#X connect 99 0 100 0;
#X connect 101 0 102 0;
#X connect 103 0 104 0;
#X connect 104 0 105 0;
#X connect 107 0 108 0;
#X connect 108 0 109 0;
#X connect 110 0 111 0;
#X connect 111 0 112 0;
#X connect 115 0 116 0;
#X connect 116 0 117 0;
#X connect 121 0 125 0;
#X connect 125 0 126 0;
#X connect 127 0 129 0;
#X connect 129 0 130 0;
#X connect 132 0 134 0;
#X connect 134 0 135 0;
#X connect 138 0 139 0;
#X connect 141 0 142 0;
#X connect 142 0 143 0;
#X connect 144 0 145 0;
#X connect 145 0 146 0;
#X connect 148 0 149 0;
#X connect 149 0 150 0;
#X connect 151 0 152 0;
#X connect 152 0 153 0;
#X connect 156 0 157 0;
#X connect 157 0 158 0;
#X connect 159 0 160 0;
#X connect 160 0 161 0;
#X connect 163 0 167 0;
#X connect 164 0 165 0;
#X connect 165 0 166 0;
#X connect 167 0 168 0;
#X connect 171 0 173 0;
#X connect 173 0 176 0;
#X connect 180 0 181 0;
#X connect 182 0 183 0;
#X connect 184 0 185 0;
#X connect 186 0 187 0;
#X connect 188 0 189 0;
#X connect 191 0 192 0;
#X connect 193 0 194 0;
